solid Mesh
  facet normal 0 -1 0
    outer loop
      vertex 20 -140 30
      vertex 20 -140 -30
      vertex 50 -140 30
    endloop
  endfacet
  facet normal 0 -1 0
    outer loop
      vertex 20 -140 -30
      vertex 50 -140 -30
      vertex 50 -140 30
    endloop
  endfacet
  facet normal -1 0 0
    outer loop
      vertex 20 -140 -30
      vertex 20 -140 30
      vertex 20 -31.5 -1.92882e-15
    endloop
  endfacet
  facet normal -1 0 0
    outer loop
      vertex 20 -140 30
      vertex 20 -31.3263 3.30391
      vertex 20 -31.5 -1.92882e-15
    endloop
  endfacet
  facet normal -1 0 0
    outer loop
      vertex 20 -9.60469 -30
      vertex 20 -140 -30
      vertex 20 -12.6983 -28.8271
    endloop
  endfacet
  facet normal -1 0 0
    outer loop
      vertex 20 -140 -30
      vertex 20 -15.6518 -27.3363
      vertex 20 -12.6983 -28.8271
    endloop
  endfacet
  facet normal 0 0 -1
    outer loop
      vertex 20 -140 -30
      vertex 20 -9.60469 -30
      vertex 50 -140 -30
    endloop
  endfacet
  facet normal 0 0 -1
    outer loop
      vertex 20 -9.60469 -30
      vertex 20 9.60469 -30
      vertex 50 -140 -30
    endloop
  endfacet
  facet normal 0 0 -1
    outer loop
      vertex 50 -140 -30
      vertex 20 9.60469 -30
      vertex 50 140 -30
    endloop
  endfacet
  facet normal 0 0 -1
    outer loop
      vertex 20 9.60469 -30
      vertex 20 140 -30
      vertex 50 140 -30
    endloop
  endfacet
  facet normal 1 0 0
    outer loop
      vertex 50 -140 -30
      vertex 50 140 -30
      vertex 50 -130 -15
    endloop
  endfacet
  facet normal 1 0 0
    outer loop
      vertex 50 140 -30
      vertex 50 130 -15
      vertex 50 -130 -15
    endloop
  endfacet
  facet normal 1 0 0
    outer loop
      vertex 50 -140 30
      vertex 50 -140 -30
      vertex 50 -130 15
    endloop
  endfacet
  facet normal 1 0 0
    outer loop
      vertex 50 -140 -30
      vertex 50 -130 -15
      vertex 50 -130 15
    endloop
  endfacet
  facet normal 0 0 1
    outer loop
      vertex 20 -140 30
      vertex 50 -140 30
      vertex 20 -9.60469 30
    endloop
  endfacet
  facet normal 0 0 1
    outer loop
      vertex 50 -140 30
      vertex 50 140 30
      vertex 20 -9.60469 30
    endloop
  endfacet
  facet normal 0 0 1
    outer loop
      vertex 20 -9.60469 30
      vertex 50 140 30
      vertex 20 9.60469 30
    endloop
  endfacet
  facet normal 0 0 1
    outer loop
      vertex 50 140 30
      vertex 20 140 30
      vertex 20 9.60469 30
    endloop
  endfacet
  facet normal -1 0 0
    outer loop
      vertex 20 -140 30
      vertex 20 -9.60469 30
      vertex 20 -12.6983 28.8271
    endloop
  endfacet
  facet normal 1 0 0
    outer loop
      vertex 50 140 30
      vertex 50 -140 30
      vertex 50 130 15
    endloop
  endfacet
  facet normal 1 0 0
    outer loop
      vertex 50 -140 30
      vertex 50 -130 15
      vertex 50 130 15
    endloop
  endfacet
  facet normal 0 1 0
    outer loop
      vertex 50 -130 -15
      vertex 40 -130 -15
      vertex 40 -130 15
    endloop
  endfacet
  facet normal 0 0 1
    outer loop
      vertex 40 -130 -15
      vertex 50 -130 -15
      vertex 50 130 -15
    endloop
  endfacet
  facet normal 0 0 1
    outer loop
      vertex 40 130 -15
      vertex 40 -130 -15
      vertex 50 130 -15
    endloop
  endfacet
  facet normal 1 0 0
    outer loop
      vertex 40 -130 -15
      vertex 40 130 -15
      vertex 40 -130 15
    endloop
  endfacet
  facet normal 1 0 0
    outer loop
      vertex 40 130 -15
      vertex 40 130 15
      vertex 40 -130 15
    endloop
  endfacet
  facet normal 0 1 0
    outer loop
      vertex 50 -130 15
      vertex 50 -130 -15
      vertex 40 -130 15
    endloop
  endfacet
  facet normal 0 0 -1
    outer loop
      vertex 40 -130 15
      vertex 40 130 15
      vertex 50 -130 15
    endloop
  endfacet
  facet normal 0 0 -1
    outer loop
      vertex 40 130 15
      vertex 50 130 15
      vertex 50 -130 15
    endloop
  endfacet
  facet normal -0.00011694 -0.998583 0.0532218
    outer loop
      vertex -1.91789e-15 -31.3215 3.34824
      vertex -1.92882e-15 -31.5 -1.92882e-15
      vertex 20 -31.3263 3.30391
    endloop
  endfacet
  facet normal 0 -0.99862 0.0525159
    outer loop
      vertex -1.92882e-15 -31.5 -1.92882e-15
      vertex 20 -31.5 -1.92882e-15
      vertex 20 -31.3263 3.30391
    endloop
  endfacet
  facet normal -1 6.12323e-17 0
    outer loop
      vertex -1.92882e-15 -31.5 -1.92882e-15
      vertex -1.91789e-15 -31.3215 3.34824
      vertex -1.91789e-15 -31.3215 -3.34824
    endloop
  endfacet
  facet normal -1 6.12322e-17 0
    outer loop
      vertex -1.91789e-15 -31.3215 3.34824
      vertex -1.88523e-15 -30.7882 6.65855
      vertex -1.91789e-15 -31.3215 -3.34824
    endloop
  endfacet
  facet normal -1 6.12324e-17 -1.30564e-23
    outer loop
      vertex -1.91789e-15 -31.3215 -3.34824
      vertex -1.88523e-15 -30.7882 6.65855
      vertex -1.83122e-15 -29.906 9.89342
    endloop
  endfacet
  facet normal -0.00011694 -0.998583 -0.0532218
    outer loop
      vertex -1.92882e-15 -31.5 -1.92882e-15
      vertex -1.91789e-15 -31.3215 -3.34824
      vertex 20 -31.3263 -3.30391
    endloop
  endfacet
  facet normal 0.000115617 -0.987604 -0.156967
    outer loop
      vertex -1.91789e-15 -31.3215 -3.34824
      vertex 20 -30.8069 -6.57137
      vertex 20 -31.3263 -3.30391
    endloop
  endfacet
  facet normal 0 -0.99862 -0.0525159
    outer loop
      vertex 20 -31.3263 -3.30391
      vertex 20 -31.5 -1.92882e-15
      vertex -1.92882e-15 -31.5 -1.92882e-15
    endloop
  endfacet
  facet normal -1 0 0
    outer loop
      vertex 20 -31.5 -1.92882e-15
      vertex 20 -31.3263 -3.30391
      vertex 20 -140 -30
    endloop
  endfacet
  facet normal -1 0 0
    outer loop
      vertex 20 -31.3263 -3.30391
      vertex 20 -30.8069 -6.57137
      vertex 20 -140 -30
    endloop
  endfacet
  facet normal -1 0 0
    outer loop
      vertex 20 -140 -30
      vertex 20 -30.8069 -6.57137
      vertex 20 -29.9478 -9.76634
    endloop
  endfacet
  facet normal -1 0 0
    outer loop
      vertex 20 -30.8069 6.57137
      vertex 20 -31.3263 3.30391
      vertex 20 -140 30
    endloop
  endfacet
  facet normal 0.000115617 -0.987604 0.156967
    outer loop
      vertex 20 -31.3263 3.30391
      vertex 20 -30.8069 6.57137
      vertex -1.91789e-15 -31.3215 3.34824
    endloop
  endfacet
  facet normal -0.000231075 -0.987268 0.159064
    outer loop
      vertex 20 -30.8069 6.57137
      vertex -1.88523e-15 -30.7882 6.65855
      vertex -1.91789e-15 -31.3215 3.34824
    endloop
  endfacet
  facet normal -1 6.12323e-17 2.71112e-23
    outer loop
      vertex -1.88523e-15 -30.7882 -6.65855
      vertex -1.91789e-15 -31.3215 -3.34824
      vertex 1.90426e-15 31.099 -5.0105
    endloop
  endfacet
  facet normal -1 6.12323e-17 2.09503e-23
    outer loop
      vertex -1.91789e-15 -31.3215 -3.34824
      vertex 1.92608e-15 31.4554 -1.6765
      vertex 1.90426e-15 31.099 -5.0105
    endloop
  endfacet
  facet normal -0.000231075 -0.987268 -0.159064
    outer loop
      vertex -1.91789e-15 -31.3215 -3.34824
      vertex -1.88523e-15 -30.7882 -6.65855
      vertex 20 -30.8069 -6.57137
    endloop
  endfacet
  facet normal 0.000227739 -0.965693 -0.259687
    outer loop
      vertex -1.88523e-15 -30.7882 -6.65855
      vertex 20 -29.9478 -9.76634
      vertex 20 -30.8069 -6.57137
    endloop
  endfacet
  facet normal -1 0 0
    outer loop
      vertex 20 -29.9478 9.76634
      vertex 20 -30.8069 6.57137
      vertex 20 -140 30
    endloop
  endfacet
  facet normal 0.000227739 -0.965693 0.259687
    outer loop
      vertex 20 -30.8069 6.57137
      vertex 20 -29.9478 9.76634
      vertex -1.88523e-15 -30.7882 6.65855
    endloop
  endfacet
  facet normal -0.00034173 -0.964768 0.263102
    outer loop
      vertex 20 -29.9478 9.76634
      vertex -1.83122e-15 -29.906 9.89342
      vertex -1.88523e-15 -30.7882 6.65855
    endloop
  endfacet
  facet normal -1 6.12323e-17 -7.57236e-24
    outer loop
      vertex -1.83122e-15 -29.906 -9.89342
      vertex -1.88523e-15 -30.7882 -6.65855
      vertex 1.86086e-15 30.3902 -8.28773
    endloop
  endfacet
  facet normal -1 6.12323e-17 -1.00222e-23
    outer loop
      vertex -1.88523e-15 -30.7882 -6.65855
      vertex 1.90426e-15 31.099 -5.0105
      vertex 1.86086e-15 30.3902 -8.28773
    endloop
  endfacet
  facet normal -0.00034173 -0.964768 -0.263102
    outer loop
      vertex -1.88523e-15 -30.7882 -6.65855
      vertex -1.83122e-15 -29.906 -9.89342
      vertex 20 -29.9478 -9.76634
    endloop
  endfacet
  facet normal 0.000337043 -0.933129 -0.359542
    outer loop
      vertex -1.83122e-15 -29.906 -9.89342
      vertex 20 -28.7582 -12.8536
      vertex 20 -29.9478 -9.76634
    endloop
  endfacet
  facet normal -1 0 0
    outer loop
      vertex 20 -29.9478 -9.76634
      vertex 20 -28.7582 -12.8536
      vertex 20 -140 -30
    endloop
  endfacet
  facet normal -1 0 0
    outer loop
      vertex 20 -28.7582 -12.8536
      vertex 20 -27.2514 -15.799
      vertex 20 -140 -30
    endloop
  endfacet
  facet normal -1 0 0
    outer loop
      vertex 20 -140 -30
      vertex 20 -27.2514 -15.799
      vertex 20 -25.444 -18.5702
    endloop
  endfacet
  facet normal -1 0 0
    outer loop
      vertex 20 -28.7582 12.8536
      vertex 20 -29.9478 9.76634
      vertex 20 -140 30
    endloop
  endfacet
  facet normal 0.000337043 -0.933129 0.359542
    outer loop
      vertex 20 -29.9478 9.76634
      vertex 20 -28.7582 12.8536
      vertex -1.83122e-15 -29.906 9.89342
    endloop
  endfacet
  facet normal -0.000449346 -0.931336 0.36416
    outer loop
      vertex 20 -28.7582 12.8536
      vertex -1.75645e-15 -28.685 13.0162
      vertex -1.83122e-15 -29.906 9.89342
    endloop
  endfacet
  facet normal -1 6.12323e-17 -3.61616e-23
    outer loop
      vertex -1.75645e-15 -28.685 -13.0162
      vertex -1.83122e-15 -29.906 -9.89342
      vertex 1.79638e-15 29.3371 -11.4711
    endloop
  endfacet
  facet normal -1 6.12323e-17 8.23653e-26
    outer loop
      vertex -1.83122e-15 -29.906 -9.89342
      vertex 1.86086e-15 30.3902 -8.28773
      vertex 1.79638e-15 29.3371 -11.4711
    endloop
  endfacet
  facet normal -0.000449346 -0.931336 -0.36416
    outer loop
      vertex -1.83122e-15 -29.906 -9.89342
      vertex -1.75645e-15 -28.685 -13.0162
      vertex 20 -28.7582 -12.8536
    endloop
  endfacet
  facet normal 0.000443077 -0.890271 -0.455432
    outer loop
      vertex -1.75645e-15 -28.685 -13.0162
      vertex 20 -27.2514 -15.799
      vertex 20 -28.7582 -12.8536
    endloop
  endfacet
  facet normal -1 6.12325e-17 -2.02744e-23
    outer loop
      vertex -1.83122e-15 -29.906 9.89342
      vertex -1.75645e-15 -28.685 13.0162
      vertex -1.91789e-15 -31.3215 -3.34824
    endloop
  endfacet
  facet normal -1 6.12323e-17 1.22049e-23
    outer loop
      vertex -1.75645e-15 -28.685 13.0162
      vertex -1.66178e-15 -27.139 15.9915
      vertex -1.91789e-15 -31.3215 -3.34824
    endloop
  endfacet
  facet normal -1 6.12323e-17 -2.22754e-24
    outer loop
      vertex -1.91789e-15 -31.3215 -3.34824
      vertex -1.66178e-15 -27.139 15.9915
      vertex -1.54829e-15 -25.2854 18.7856
    endloop
  endfacet
  facet normal -1 0 0
    outer loop
      vertex 20 -27.2514 15.799
      vertex 20 -28.7582 12.8536
      vertex 20 -140 30
    endloop
  endfacet
  facet normal 0.000443077 -0.890271 0.455432
    outer loop
      vertex 20 -28.7582 12.8536
      vertex 20 -27.2514 15.799
      vertex -1.75645e-15 -28.685 13.0162
    endloop
  endfacet
  facet normal -0.00055382 -0.887352 0.461093
    outer loop
      vertex 20 -27.2514 15.799
      vertex -1.66178e-15 -27.139 15.9915
      vertex -1.75645e-15 -28.685 13.0162
    endloop
  endfacet
  facet normal -1 6.12323e-17 1.76957e-23
    outer loop
      vertex -1.66178e-15 -27.139 -15.9915
      vertex -1.75645e-15 -28.685 -13.0162
      vertex 1.71154e-15 27.9516 -14.5244
    endloop
  endfacet
  facet normal -1 6.12323e-17 -1.45944e-23
    outer loop
      vertex -1.75645e-15 -28.685 -13.0162
      vertex 1.79638e-15 29.3371 -11.4711
      vertex 1.71154e-15 27.9516 -14.5244
    endloop
  endfacet
  facet normal -0.00055382 -0.887352 -0.461093
    outer loop
      vertex -1.75645e-15 -28.685 -13.0162
      vertex -1.66178e-15 -27.139 -15.9915
      vertex 20 -27.2514 -15.799
    endloop
  endfacet
  facet normal 0.000545939 -0.837592 -0.546296
    outer loop
      vertex -1.66178e-15 -27.139 -15.9915
      vertex 20 -25.444 -18.5702
      vertex 20 -27.2514 -15.799
    endloop
  endfacet
  facet normal -1 0 0
    outer loop
      vertex 20 -25.444 18.5702
      vertex 20 -27.2514 15.799
      vertex 20 -140 30
    endloop
  endfacet
  facet normal 0.000545939 -0.837592 0.546296
    outer loop
      vertex 20 -27.2514 15.799
      vertex 20 -25.444 18.5702
      vertex -1.66178e-15 -27.139 15.9915
    endloop
  endfacet
  facet normal -0.000655187 -0.833314 0.5528
    outer loop
      vertex 20 -25.444 18.5702
      vertex -1.54829e-15 -25.2854 18.7856
      vertex -1.66178e-15 -27.139 15.9915
    endloop
  endfacet
  facet normal -1 6.12323e-17 -4.83135e-24
    outer loop
      vertex -1.54829e-15 -25.2854 -18.7856
      vertex -1.66178e-15 -27.139 -15.9915
      vertex 1.60731e-15 26.2494 -17.4132
    endloop
  endfacet
  facet normal -1 6.12323e-17 3.36507e-23
    outer loop
      vertex -1.66178e-15 -27.139 -15.9915
      vertex 1.71154e-15 27.9516 -14.5244
      vertex 1.60731e-15 26.2494 -17.4132
    endloop
  endfacet
  facet normal -0.000655187 -0.833314 -0.5528
    outer loop
      vertex -1.66178e-15 -27.139 -15.9915
      vertex -1.54829e-15 -25.2854 -18.7856
      vertex 20 -25.444 -18.5702
    endloop
  endfacet
  facet normal 0.000645625 -0.775673 -0.631135
    outer loop
      vertex -1.54829e-15 -25.2854 -18.7856
      vertex 20 -23.3559 -21.1365
      vertex 20 -25.444 -18.5702
    endloop
  endfacet
  facet normal -1 0 0
    outer loop
      vertex 20 -25.444 -18.5702
      vertex 20 -23.3559 -21.1365
      vertex 20 -140 -30
    endloop
  endfacet
  facet normal -1 0 0
    outer loop
      vertex 20 -23.3559 -21.1365
      vertex 20 -21.0102 -23.4696
      vertex 20 -140 -30
    endloop
  endfacet
  facet normal -1 0 0
    outer loop
      vertex 20 -140 -30
      vertex 20 -21.0102 -23.4696
      vertex 20 -18.4327 -25.5438
    endloop
  endfacet
  facet normal -1 0 0
    outer loop
      vertex 20 -23.3559 21.1365
      vertex 20 -25.444 18.5702
      vertex 20 -140 30
    endloop
  endfacet
  facet normal 0.000645625 -0.775673 0.631135
    outer loop
      vertex 20 -25.444 18.5702
      vertex 20 -23.3559 21.1365
      vertex -1.54829e-15 -25.2854 18.7856
    endloop
  endfacet
  facet normal -0.000753301 -0.769834 0.638244
    outer loop
      vertex 20 -23.3559 21.1365
      vertex -1.41725e-15 -23.1454 21.3668
      vertex -1.54829e-15 -25.2854 18.7856
    endloop
  endfacet
  facet normal -1 6.12323e-17 1.08641e-24
    outer loop
      vertex -1.41725e-15 -23.1454 -21.3668
      vertex -1.54829e-15 -25.2854 -18.7856
      vertex 1.48487e-15 24.2498 -20.1047
    endloop
  endfacet
  facet normal -1 6.12323e-17 -2.51377e-23
    outer loop
      vertex -1.54829e-15 -25.2854 -18.7856
      vertex 1.60731e-15 26.2494 -17.4132
      vertex 1.48487e-15 24.2498 -20.1047
    endloop
  endfacet
  facet normal -0.000753301 -0.769834 -0.638244
    outer loop
      vertex -1.54829e-15 -25.2854 -18.7856
      vertex -1.41725e-15 -23.1454 -21.3668
      vertex 20 -23.3559 -21.1365
    endloop
  endfacet
  facet normal 0.000742265 -0.705197 -0.709011
    outer loop
      vertex -1.41725e-15 -23.1454 -21.3668
      vertex 20 -21.0102 -23.4696
      vertex 20 -23.3559 -21.1365
    endloop
  endfacet
  facet normal -1 6.12323e-17 1.03386e-24
    outer loop
      vertex -1.54829e-15 -25.2854 18.7856
      vertex -1.41725e-15 -23.1454 21.3668
      vertex -1.91789e-15 -31.3215 -3.34824
    endloop
  endfacet
  facet normal -1 6.12324e-17 -8.51383e-24
    outer loop
      vertex -1.41725e-15 -23.1454 21.3668
      vertex -1.27015e-15 -20.7431 23.706
      vertex -1.91789e-15 -31.3215 -3.34824
    endloop
  endfacet
  facet normal -1 6.12323e-17 8.55253e-24
    outer loop
      vertex -1.91789e-15 -31.3215 -3.34824
      vertex -1.27015e-15 -20.7431 23.706
      vertex -1.10866e-15 -18.1058 25.7765
    endloop
  endfacet
  facet normal -1 0 0
    outer loop
      vertex 20 -21.0102 23.4696
      vertex 20 -23.3559 21.1365
      vertex 20 -140 30
    endloop
  endfacet
  facet normal 0.000742265 -0.705197 0.709011
    outer loop
      vertex 20 -23.3559 21.1365
      vertex 20 -21.0102 23.4696
      vertex -1.41725e-15 -23.1454 21.3668
    endloop
  endfacet
  facet normal -0.000848302 -0.697631 0.716457
    outer loop
      vertex 20 -21.0102 23.4696
      vertex -1.27015e-15 -20.7431 23.706
      vertex -1.41725e-15 -23.1454 21.3668
    endloop
  endfacet
  facet normal -1 6.12323e-17 -1.70259e-23
    outer loop
      vertex -1.27015e-15 -20.7431 -23.706
      vertex -1.41725e-15 -23.1454 -21.3668
      vertex 1.3456e-15 21.9754 -22.5684
    endloop
  endfacet
  facet normal -1 6.12323e-17 -3.49111e-23
    outer loop
      vertex -1.41725e-15 -23.1454 -21.3668
      vertex 1.48487e-15 24.2498 -20.1047
      vertex 1.3456e-15 21.9754 -22.5684
    endloop
  endfacet
  facet normal -0.000848302 -0.697631 -0.716457
    outer loop
      vertex -1.41725e-15 -23.1454 -21.3668
      vertex -1.27015e-15 -20.7431 -23.706
      vertex 20 -21.0102 -23.4696
    endloop
  endfacet
  facet normal 0.000835678 -0.626942 -0.779065
    outer loop
      vertex -1.27015e-15 -20.7431 -23.706
      vertex 20 -18.4327 -25.5438
      vertex 20 -21.0102 -23.4696
    endloop
  endfacet
  facet normal -1 0 0
    outer loop
      vertex 20 -18.4327 25.5438
      vertex 20 -21.0102 23.4696
      vertex 20 -140 30
    endloop
  endfacet
  facet normal 0.000835678 -0.626942 0.779065
    outer loop
      vertex 20 -21.0102 23.4696
      vertex 20 -18.4327 25.5438
      vertex -1.27015e-15 -20.7431 23.706
    endloop
  endfacet
  facet normal -0.00094017 -0.617524 0.786551
    outer loop
      vertex 20 -18.4327 25.5438
      vertex -1.10866e-15 -18.1058 25.7765
      vertex -1.27015e-15 -20.7431 23.706
    endloop
  endfacet
  facet normal -1 6.12323e-17 1.15233e-23
    outer loop
      vertex -1.10866e-15 -18.1058 -25.7765
      vertex -1.27015e-15 -20.7431 -23.706
      vertex 1.19109e-15 19.452 -24.7764
    endloop
  endfacet
  facet normal -1 6.12323e-17 5.38908e-23
    outer loop
      vertex -1.27015e-15 -20.7431 -23.706
      vertex 1.3456e-15 21.9754 -22.5684
      vertex 1.19109e-15 19.452 -24.7764
    endloop
  endfacet
  facet normal -0.00094017 -0.617524 -0.786551
    outer loop
      vertex -1.27015e-15 -20.7431 -23.706
      vertex -1.10866e-15 -18.1058 -25.7765
      vertex 20 -18.4327 -25.5438
    endloop
  endfacet
  facet normal 0.000925948 -0.541771 -0.840525
    outer loop
      vertex -1.10866e-15 -18.1058 -25.7765
      vertex 20 -15.6518 -27.3363
      vertex 20 -18.4327 -25.5438
    endloop
  endfacet
  facet normal -1 0 0
    outer loop
      vertex 20 -18.4327 -25.5438
      vertex 20 -15.6518 -27.3363
      vertex 20 -140 -30
    endloop
  endfacet
  facet normal -1 0 0
    outer loop
      vertex 20 -15.6518 27.3363
      vertex 20 -18.4327 25.5438
      vertex 20 -140 30
    endloop
  endfacet
  facet normal 0.000925948 -0.541771 0.840525
    outer loop
      vertex 20 -18.4327 25.5438
      vertex 20 -15.6518 27.3363
      vertex -1.10866e-15 -18.1058 25.7765
    endloop
  endfacet
  facet normal -0.0010289 -0.530421 0.847734
    outer loop
      vertex 20 -15.6518 27.3363
      vertex -9.34611e-16 -15.2634 27.555
      vertex -1.10866e-15 -18.1058 25.7765
    endloop
  endfacet
  facet normal -1 6.12323e-17 1.54834e-23
    outer loop
      vertex -9.34611e-16 -15.2634 -27.555
      vertex -1.10866e-15 -18.1058 -25.7765
      vertex 1.02309e-15 16.7083 -26.7036
    endloop
  endfacet
  facet normal -1 6.12323e-17 8.52802e-24
    outer loop
      vertex -1.10866e-15 -18.1058 -25.7765
      vertex 1.19109e-15 19.452 -24.7764
      vertex 1.02309e-15 16.7083 -26.7036
    endloop
  endfacet
  facet normal -0.0010289 -0.530421 -0.847734
    outer loop
      vertex -1.10866e-15 -18.1058 -25.7765
      vertex -9.34611e-16 -15.2634 -27.555
      vertex 20 -15.6518 -27.3363
    endloop
  endfacet
  facet normal 0.00101306 -0.450623 -0.892714
    outer loop
      vertex -9.34611e-16 -15.2634 -27.555
      vertex 20 -12.6983 -28.8271
      vertex 20 -15.6518 -27.3363
    endloop
  endfacet
  facet normal -1 6.12323e-17 7.92676e-24
    outer loop
      vertex -1.10866e-15 -18.1058 25.7765
      vertex -9.34611e-16 -15.2634 27.555
      vertex -1.91789e-15 -31.3215 -3.34824
    endloop
  endfacet
  facet normal -1 6.12323e-17 -2.5705e-24
    outer loop
      vertex -9.34611e-16 -15.2634 27.555
      vertex -7.49971e-16 -12.248 29.0213
      vertex -1.91789e-15 -31.3215 -3.34824
    endloop
  endfacet
  facet normal -1 6.12323e-17 1.77135e-24
    outer loop
      vertex -1.91789e-15 -31.3215 -3.34824
      vertex -7.49971e-16 -12.248 29.0213
      vertex -5.56834e-16 -9.0938 30.1588
    endloop
  endfacet
  facet normal -1 0 0
    outer loop
      vertex 20 -12.6983 28.8271
      vertex 20 -15.6518 27.3363
      vertex 20 -140 30
    endloop
  endfacet
  facet normal 0.00101306 -0.450623 0.892714
    outer loop
      vertex 20 -15.6518 27.3363
      vertex 20 -12.6983 28.8271
      vertex -9.34611e-16 -15.2634 27.555
    endloop
  endfacet
  facet normal -0.00111432 -0.437307 0.899311
    outer loop
      vertex 20 -12.6983 28.8271
      vertex -7.49971e-16 -12.248 29.0213
      vertex -9.34611e-16 -15.2634 27.555
    endloop
  endfacet
  facet normal -1 6.12323e-17 -5.79721e-24
    outer loop
      vertex -7.49971e-16 -12.248 -29.0213
      vertex -9.34611e-16 -15.2634 -27.555
      vertex 8.43487e-16 13.7752 -28.3283
    endloop
  endfacet
  facet normal -1 6.12323e-17 -2.30393e-23
    outer loop
      vertex -9.34611e-16 -15.2634 -27.555
      vertex 1.02309e-15 16.7083 -26.7036
      vertex 8.43487e-16 13.7752 -28.3283
    endloop
  endfacet
  facet normal -0.00111432 -0.437307 -0.899311
    outer loop
      vertex -9.34611e-16 -15.2634 -27.555
      vertex -7.49971e-16 -12.248 -29.0213
      vertex 20 -12.6983 -28.8271
    endloop
  endfacet
  facet normal 0.00109716 -0.354505 -0.935054
    outer loop
      vertex -7.49971e-16 -12.248 -29.0213
      vertex 20 -9.60469 -30
      vertex 20 -12.6983 -28.8271
    endloop
  endfacet
  facet normal 0.00109716 -0.354505 0.935054
    outer loop
      vertex 20 -12.6983 28.8271
      vertex 20 -9.60469 30
      vertex -7.49971e-16 -12.248 29.0213
    endloop
  endfacet
  facet normal -0.00119679 -0.339238 0.9407
    outer loop
      vertex 20 -9.60469 30
      vertex -5.56834e-16 -9.0938 30.1588
      vertex -7.49971e-16 -12.248 29.0213
    endloop
  endfacet
  facet normal -1 6.12323e-17 7.45386e-24
    outer loop
      vertex -5.56834e-16 -9.0938 -30.1588
      vertex -7.49971e-16 -12.248 -29.0213
      vertex 6.5433e-16 10.686 -29.6321
    endloop
  endfacet
  facet normal -1 6.12323e-17 3.16149e-25
    outer loop
      vertex -7.49971e-16 -12.248 -29.0213
      vertex 8.43487e-16 13.7752 -28.3283
      vertex 6.5433e-16 10.686 -29.6321
    endloop
  endfacet
  facet normal -0.00119679 -0.339238 -0.9407
    outer loop
      vertex -7.49971e-16 -12.248 -29.0213
      vertex -5.56834e-16 -9.0938 -30.1588
      vertex 20 -9.60469 -30
    endloop
  endfacet
  facet normal 0.00115386 -0.255345 -0.966849
    outer loop
      vertex -5.56834e-16 -9.0938 -30.1588
      vertex 20 -6.46056 -30.8304
      vertex 20 -9.60469 -30
    endloop
  endfacet
  facet normal 1 0 0
    outer loop
      vertex 20 -9.60469 -30
      vertex 20 -6.46056 -30.8304
      vertex 20 6.46056 -30.8304
    endloop
  endfacet
  facet normal 1 0 0
    outer loop
      vertex 20 -6.46056 -30.8304
      vertex 20 3.24759 -31.3321
      vertex 20 6.46056 -30.8304
    endloop
  endfacet
  facet normal 1 0 0
    outer loop
      vertex 20 9.60469 -30
      vertex 20 -9.60469 -30
      vertex 20 6.46056 -30.8304
    endloop
  endfacet
  facet normal 1 0 0
    outer loop
      vertex 20 -9.60469 30
      vertex 20 9.60469 30
      vertex 20 -6.46056 30.8304
    endloop
  endfacet
  facet normal 1 0 0
    outer loop
      vertex 20 9.60469 30
      vertex 20 6.46056 30.8304
      vertex 20 -6.46056 30.8304
    endloop
  endfacet
  facet normal 1 0 0
    outer loop
      vertex 20 -6.46056 30.8304
      vertex 20 6.46056 30.8304
      vertex 20 -3.24759 31.3321
    endloop
  endfacet
  facet normal 1 0 0
    outer loop
      vertex 20 6.46056 30.8304
      vertex 20 3.24759 31.3321
      vertex 20 -3.24759 31.3321
    endloop
  endfacet
  facet normal 1 0 0
    outer loop
      vertex 20 -3.24759 31.3321
      vertex 20 3.24759 31.3321
      vertex 20 2.63299e-15 31.5
    endloop
  endfacet
  facet normal 0.00115386 -0.255345 0.966849
    outer loop
      vertex 20 -9.60469 30
      vertex 20 -6.46056 30.8304
      vertex -5.56834e-16 -9.0938 30.1588
    endloop
  endfacet
  facet normal -0.00137223 -0.237326 0.971429
    outer loop
      vertex 20 -6.46056 30.8304
      vertex -3.57388e-16 -5.83659 30.9545
      vertex -5.56834e-16 -9.0938 30.1588
    endloop
  endfacet
  facet normal -1 6.12323e-17 2.05831e-23
    outer loop
      vertex -3.57388e-16 -5.83659 -30.9545
      vertex -5.56834e-16 -9.0938 -30.1588
      vertex 4.5776e-16 7.47579 -30.6
    endloop
  endfacet
  facet normal -1 6.12323e-17 -2.78993e-23
    outer loop
      vertex -5.56834e-16 -9.0938 -30.1588
      vertex 6.5433e-16 10.686 -29.6321
      vertex 4.5776e-16 7.47579 -30.6
    endloop
  endfacet
  facet normal -0.00137223 -0.237326 -0.971429
    outer loop
      vertex -5.56834e-16 -9.0938 -30.1588
      vertex -3.57388e-16 -5.83659 -30.9545
      vertex 20 -6.46056 -30.8304
    endloop
  endfacet
  facet normal 0.00132102 -0.154303 -0.988023
    outer loop
      vertex -3.57388e-16 -5.83659 -30.9545
      vertex 20 -3.24759 -31.3321
      vertex 20 -6.46056 -30.8304
    endloop
  endfacet
  facet normal -1 6.12323e-17 1.69375e-24
    outer loop
      vertex -5.56834e-16 -9.0938 30.1588
      vertex -3.57388e-16 -5.83659 30.9545
      vertex -1.91789e-15 -31.3215 -3.34824
    endloop
  endfacet
  facet normal -1 6.12323e-17 -2.71479e-24
    outer loop
      vertex -3.57388e-16 -5.83659 30.9545
      vertex -1.53893e-16 -2.51326 31.3996
      vertex -1.91789e-15 -31.3215 -3.34824
    endloop
  endfacet
  facet normal -1 6.12323e-17 -2.39725e-24
    outer loop
      vertex -1.91789e-15 -31.3215 -3.34824
      vertex -1.53893e-16 -2.51326 31.3996
      vertex 5.13462e-17 0.838546 31.4888
    endloop
  endfacet
  facet normal 1 0 0
    outer loop
      vertex 20 -6.46056 -30.8304
      vertex 20 -3.24759 -31.3321
      vertex 20 3.24759 -31.3321
    endloop
  endfacet
  facet normal 1 0 0
    outer loop
      vertex 20 -3.24759 -31.3321
      vertex 20 -1.22465e-15 -31.5
      vertex 20 3.24759 -31.3321
    endloop
  endfacet
  facet normal 0.00132102 -0.154303 0.988023
    outer loop
      vertex 20 -6.46056 30.8304
      vertex 20 -3.24759 31.3321
      vertex -3.57388e-16 -5.83659 30.9545
    endloop
  endfacet
  facet normal -0.00153126 -0.132726 0.991152
    outer loop
      vertex 20 -3.24759 31.3321
      vertex -1.53893e-16 -2.51326 31.3996
      vertex -3.57388e-16 -5.83659 30.9545
    endloop
  endfacet
  facet normal -1 6.12323e-17 -1.10779e-23
    outer loop
      vertex -1.53893e-16 -2.51326 -31.3996
      vertex -3.57388e-16 -5.83659 -30.9545
      vertex 2.56003e-16 4.18085 -31.2213
    endloop
  endfacet
  facet normal -1 6.12323e-17 3.02027e-23
    outer loop
      vertex -3.57388e-16 -5.83659 -30.9545
      vertex 4.5776e-16 7.47579 -30.6
      vertex 2.56003e-16 4.18085 -31.2213
    endloop
  endfacet
  facet normal -0.00153126 -0.132726 -0.991152
    outer loop
      vertex -3.57388e-16 -5.83659 -30.9545
      vertex -1.53893e-16 -2.51326 -31.3996
      vertex 20 -3.24759 -31.3321
    endloop
  endfacet
  facet normal 0.00147204 -0.051618 -0.998666
    outer loop
      vertex -1.53893e-16 -2.51326 -31.3996
      vertex 20 -1.22465e-15 -31.5
      vertex 20 -3.24759 -31.3321
    endloop
  endfacet
  facet normal 0.00147204 -0.051618 0.998666
    outer loop
      vertex 20 -3.24759 31.3321
      vertex 20 2.63299e-15 31.5
      vertex -1.53893e-16 -2.51326 31.3996
    endloop
  endfacet
  facet normal -0.00167415 -0.0266203 0.999644
    outer loop
      vertex 20 2.63299e-15 31.5
      vertex 5.13462e-17 0.838546 31.4888
      vertex -1.53893e-16 -2.51326 31.3996
    endloop
  endfacet
  facet normal -1 6.12323e-17 -3.18277e-23
    outer loop
      vertex 5.13462e-17 0.838546 -31.4888
      vertex -1.53893e-16 -2.51326 -31.3996
      vertex 2.56003e-16 4.18085 -31.2213
    endloop
  endfacet
  facet normal -0.00167415 -0.0266203 -0.999644
    outer loop
      vertex -1.53893e-16 -2.51326 -31.3996
      vertex 5.13462e-17 0.838546 -31.4888
      vertex 20 -1.22465e-15 -31.5
    endloop
  endfacet
  facet normal 0.00160671 0.051618 -0.998666
    outer loop
      vertex 5.13462e-17 0.838546 -31.4888
      vertex 20 3.24759 -31.3321
      vertex 20 -1.22465e-15 -31.5
    endloop
  endfacet
  facet normal 0.00160671 0.051618 0.998666
    outer loop
      vertex 20 2.63299e-15 31.5
      vertex 20 3.24759 31.3321
      vertex 5.13462e-17 0.838546 31.4888
    endloop
  endfacet
  facet normal -0.00180071 0.0797859 0.99681
    outer loop
      vertex 20 3.24759 31.3321
      vertex 2.56003e-16 4.18085 31.2213
      vertex 5.13462e-17 0.838546 31.4888
    endloop
  endfacet
  facet normal -0.00180071 0.0797859 -0.99681
    outer loop
      vertex 5.13462e-17 0.838546 -31.4888
      vertex 2.56003e-16 4.18085 -31.2213
      vertex 20 3.24759 -31.3321
    endloop
  endfacet
  facet normal 0.00172519 0.154303 -0.988022
    outer loop
      vertex 2.56003e-16 4.18085 -31.2213
      vertex 20 6.46056 -30.8304
      vertex 20 3.24759 -31.3321
    endloop
  endfacet
  facet normal -1 6.12323e-17 7.41128e-25
    outer loop
      vertex 5.13462e-17 0.838546 31.4888
      vertex 2.56003e-16 4.18085 31.2213
      vertex -1.91789e-15 -31.3215 -3.34824
    endloop
  endfacet
  facet normal -1 6.12323e-17 -6.89e-24
    outer loop
      vertex 2.56003e-16 4.18085 31.2213
      vertex 4.5776e-16 7.47579 30.6
      vertex -1.91789e-15 -31.3215 -3.34824
    endloop
  endfacet
  facet normal -1 6.12323e-17 6.64165e-24
    outer loop
      vertex -1.91789e-15 -31.3215 -3.34824
      vertex 4.5776e-16 7.47579 30.6
      vertex 6.5433e-16 10.686 29.6321
    endloop
  endfacet
  facet normal 0.00172519 0.154303 0.988022
    outer loop
      vertex 20 3.24759 31.3321
      vertex 20 6.46056 30.8304
      vertex 2.56003e-16 4.18085 31.2213
    endloop
  endfacet
  facet normal -0.00191101 0.185288 0.982682
    outer loop
      vertex 20 6.46056 30.8304
      vertex 4.5776e-16 7.47579 30.6
      vertex 2.56003e-16 4.18085 31.2213
    endloop
  endfacet
  facet normal -0.00191101 0.185288 -0.982682
    outer loop
      vertex 2.56003e-16 4.18085 -31.2213
      vertex 4.5776e-16 7.47579 -30.6
      vertex 20 6.46056 -30.8304
    endloop
  endfacet
  facet normal 0.00182749 0.255344 -0.966848
    outer loop
      vertex 4.5776e-16 7.47579 -30.6
      vertex 20 9.60469 -30
      vertex 20 6.46056 -30.8304
    endloop
  endfacet
  facet normal 0.00182749 0.255344 0.966848
    outer loop
      vertex 20 6.46056 30.8304
      vertex 20 9.60469 30
      vertex 4.5776e-16 7.47579 30.6
    endloop
  endfacet
  facet normal -0.00200499 0.288691 0.95742
    outer loop
      vertex 20 9.60469 30
      vertex 6.5433e-16 10.686 29.6321
      vertex 4.5776e-16 7.47579 30.6
    endloop
  endfacet
  facet normal -0.00200499 0.288691 -0.95742
    outer loop
      vertex 4.5776e-16 7.47579 -30.6
      vertex 6.5433e-16 10.686 -29.6321
      vertex 20 9.60469 -30
    endloop
  endfacet
  facet normal 0.00196481 0.354504 -0.935052
    outer loop
      vertex 6.5433e-16 10.686 -29.6321
      vertex 20 12.6983 -28.8271
      vertex 20 9.60469 -30
    endloop
  endfacet
  facet normal -1 0 0
    outer loop
      vertex 20 9.60469 -30
      vertex 20 12.6983 -28.8271
      vertex 20 140 -30
    endloop
  endfacet
  facet normal -1 0 0
    outer loop
      vertex 20 12.6983 -28.8271
      vertex 20 15.6518 -27.3363
      vertex 20 140 -30
    endloop
  endfacet
  facet normal -1 0 0
    outer loop
      vertex 20 140 -30
      vertex 20 15.6518 -27.3363
      vertex 20 18.4327 -25.5438
    endloop
  endfacet
  facet normal -1 0 0
    outer loop
      vertex 20 9.60469 30
      vertex 20 140 30
      vertex 20 12.6983 28.8271
    endloop
  endfacet
  facet normal -1 0 0
    outer loop
      vertex 20 140 30
      vertex 20 15.6518 27.3363
      vertex 20 12.6983 28.8271
    endloop
  endfacet
  facet normal 0.00196481 0.354504 0.935052
    outer loop
      vertex 20 9.60469 30
      vertex 20 12.6983 28.8271
      vertex 6.5433e-16 10.686 29.6321
    endloop
  endfacet
  facet normal -0.00204127 0.388824 0.92131
    outer loop
      vertex 20 12.6983 28.8271
      vertex 8.43487e-16 13.7752 28.3283
      vertex 6.5433e-16 10.686 29.6321
    endloop
  endfacet
  facet normal -0.00204127 0.388824 -0.92131
    outer loop
      vertex 6.5433e-16 10.686 -29.6321
      vertex 8.43487e-16 13.7752 -28.3283
      vertex 20 12.6983 -28.8271
    endloop
  endfacet
  facet normal 0.00199946 0.450622 -0.892713
    outer loop
      vertex 8.43487e-16 13.7752 -28.3283
      vertex 20 15.6518 -27.3363
      vertex 20 12.6983 -28.8271
    endloop
  endfacet
  facet normal -1 6.12323e-17 -1.63466e-25
    outer loop
      vertex 6.5433e-16 10.686 29.6321
      vertex 8.43487e-16 13.7752 28.3283
      vertex -1.91789e-15 -31.3215 -3.34824
    endloop
  endfacet
  facet normal -1 6.12323e-17 1.03539e-23
    outer loop
      vertex 8.43487e-16 13.7752 28.3283
      vertex 1.02309e-15 16.7083 26.7036
      vertex -1.91789e-15 -31.3215 -3.34824
    endloop
  endfacet
  facet normal -1 6.12323e-17 -4.01136e-24
    outer loop
      vertex -1.91789e-15 -31.3215 -3.34824
      vertex 1.02309e-15 16.7083 26.7036
      vertex 1.19109e-15 19.452 24.7764
    endloop
  endfacet
  facet normal 0.00199946 0.450622 0.892713
    outer loop
      vertex 20 12.6983 28.8271
      vertex 20 15.6518 27.3363
      vertex 8.43487e-16 13.7752 28.3283
    endloop
  endfacet
  facet normal -0.00207456 0.48455 0.874761
    outer loop
      vertex 20 15.6518 27.3363
      vertex 1.02309e-15 16.7083 26.7036
      vertex 8.43487e-16 13.7752 28.3283
    endloop
  endfacet
  facet normal -0.00207456 0.48455 -0.874761
    outer loop
      vertex 8.43487e-16 13.7752 -28.3283
      vertex 1.02309e-15 16.7083 -26.7036
      vertex 20 15.6518 -27.3363
    endloop
  endfacet
  facet normal 0.00203087 0.54177 -0.840524
    outer loop
      vertex 1.02309e-15 16.7083 -26.7036
      vertex 20 18.4327 -25.5438
      vertex 20 15.6518 -27.3363
    endloop
  endfacet
  facet normal -1 0 0
    outer loop
      vertex 20 18.4327 25.5438
      vertex 20 15.6518 27.3363
      vertex 20 140 30
    endloop
  endfacet
  facet normal 0.00203087 0.54177 0.840524
    outer loop
      vertex 20 15.6518 27.3363
      vertex 20 18.4327 25.5438
      vertex 1.02309e-15 16.7083 26.7036
    endloop
  endfacet
  facet normal -0.00210448 0.574786 0.818301
    outer loop
      vertex 20 18.4327 25.5438
      vertex 1.19109e-15 19.452 24.7764
      vertex 1.02309e-15 16.7083 26.7036
    endloop
  endfacet
  facet normal -0.00210448 0.574786 -0.818301
    outer loop
      vertex 1.02309e-15 16.7083 -26.7036
      vertex 1.19109e-15 19.452 -24.7764
      vertex 20 18.4327 -25.5438
    endloop
  endfacet
  facet normal 0.00205935 0.626941 -0.779064
    outer loop
      vertex 1.19109e-15 19.452 -24.7764
      vertex 20 21.0102 -23.4696
      vertex 20 18.4327 -25.5438
    endloop
  endfacet
  facet normal -1 0 0
    outer loop
      vertex 20 18.4327 -25.5438
      vertex 20 21.0102 -23.4696
      vertex 20 140 -30
    endloop
  endfacet
  facet normal -1 0 0
    outer loop
      vertex 20 21.0102 -23.4696
      vertex 20 23.3559 -21.1365
      vertex 20 140 -30
    endloop
  endfacet
  facet normal -1 0 0
    outer loop
      vertex 20 140 -30
      vertex 20 23.3559 -21.1365
      vertex 20 25.444 -18.5702
    endloop
  endfacet
  facet normal -1 0 0
    outer loop
      vertex 20 21.0102 23.4696
      vertex 20 18.4327 25.5438
      vertex 20 140 30
    endloop
  endfacet
  facet normal 0.00205935 0.626941 0.779064
    outer loop
      vertex 20 18.4327 25.5438
      vertex 20 21.0102 23.4696
      vertex 1.19109e-15 19.452 24.7764
    endloop
  endfacet
  facet normal -0.00213127 0.65851 0.752569
    outer loop
      vertex 20 21.0102 23.4696
      vertex 1.3456e-15 21.9754 22.5684
      vertex 1.19109e-15 19.452 24.7764
    endloop
  endfacet
  facet normal -0.00213127 0.65851 -0.752569
    outer loop
      vertex 1.19109e-15 19.452 -24.7764
      vertex 1.3456e-15 21.9754 -22.5684
      vertex 20 21.0102 -23.4696
    endloop
  endfacet
  facet normal 0.0020846 0.705196 -0.70901
    outer loop
      vertex 1.3456e-15 21.9754 -22.5684
      vertex 20 23.3559 -21.1365
      vertex 20 21.0102 -23.4696
    endloop
  endfacet
  facet normal -1 6.12324e-17 -3.30688e-23
    outer loop
      vertex 1.19109e-15 19.452 24.7764
      vertex 1.3456e-15 21.9754 22.5684
      vertex -1.91789e-15 -31.3215 -3.34824
    endloop
  endfacet
  facet normal -1 6.12323e-17 2.45581e-23
    outer loop
      vertex 1.3456e-15 21.9754 22.5684
      vertex 1.48487e-15 24.2498 20.1047
      vertex -1.91789e-15 -31.3215 -3.34824
    endloop
  endfacet
  facet normal -1 6.12323e-17 1.95935e-23
    outer loop
      vertex -1.91789e-15 -31.3215 -3.34824
      vertex 1.48487e-15 24.2498 20.1047
      vertex 1.60731e-15 26.2494 17.4132
    endloop
  endfacet
  facet normal -1 0 0
    outer loop
      vertex 20 23.3559 21.1365
      vertex 20 21.0102 23.4696
      vertex 20 140 30
    endloop
  endfacet
  facet normal 0.0020846 0.705196 0.70901
    outer loop
      vertex 20 21.0102 23.4696
      vertex 20 23.3559 21.1365
      vertex 1.3456e-15 21.9754 22.5684
    endloop
  endfacet
  facet normal -0.00215489 0.734772 0.678311
    outer loop
      vertex 20 23.3559 21.1365
      vertex 1.48487e-15 24.2498 20.1047
      vertex 1.3456e-15 21.9754 22.5684
    endloop
  endfacet
  facet normal -0.00215489 0.734772 -0.678311
    outer loop
      vertex 1.3456e-15 21.9754 -22.5684
      vertex 1.48487e-15 24.2498 -20.1047
      vertex 20 23.3559 -21.1365
    endloop
  endfacet
  facet normal 0.00210676 0.775671 -0.631134
    outer loop
      vertex 1.48487e-15 24.2498 -20.1047
      vertex 20 25.444 -18.5702
      vertex 20 23.3559 -21.1365
    endloop
  endfacet
  facet normal -1 0 0
    outer loop
      vertex 20 25.444 18.5702
      vertex 20 23.3559 21.1365
      vertex 20 140 30
    endloop
  endfacet
  facet normal 0.00210676 0.775671 0.631134
    outer loop
      vertex 20 23.3559 21.1365
      vertex 20 25.444 18.5702
      vertex 1.48487e-15 24.2498 20.1047
    endloop
  endfacet
  facet normal -0.00217542 0.80271 0.596366
    outer loop
      vertex 20 25.444 18.5702
      vertex 1.60731e-15 26.2494 17.4132
      vertex 1.48487e-15 24.2498 20.1047
    endloop
  endfacet
  facet normal -0.00217542 0.80271 -0.596366
    outer loop
      vertex 1.48487e-15 24.2498 -20.1047
      vertex 1.60731e-15 26.2494 -17.4132
      vertex 20 25.444 -18.5702
    endloop
  endfacet
  facet normal 0.00212561 0.83759 -0.546295
    outer loop
      vertex 1.60731e-15 26.2494 -17.4132
      vertex 20 27.2514 -15.799
      vertex 20 25.444 -18.5702
    endloop
  endfacet
  facet normal -1 0 0
    outer loop
      vertex 20 25.444 -18.5702
      vertex 20 27.2514 -15.799
      vertex 20 140 -30
    endloop
  endfacet
  facet normal -1 0 0
    outer loop
      vertex 20 27.2514 -15.799
      vertex 20 28.7582 -12.8536
      vertex 20 140 -30
    endloop
  endfacet
  facet normal -1 0 0
    outer loop
      vertex 20 140 -30
      vertex 20 28.7582 -12.8536
      vertex 20 29.9478 -9.76634
    endloop
  endfacet
  facet normal -1 0 0
    outer loop
      vertex 20 27.2514 15.799
      vertex 20 25.444 18.5702
      vertex 20 140 30
    endloop
  endfacet
  facet normal 0.00212561 0.83759 0.546295
    outer loop
      vertex 20 25.444 18.5702
      vertex 20 27.2514 15.799
      vertex 1.60731e-15 26.2494 17.4132
    endloop
  endfacet
  facet normal -0.00219284 0.861552 0.507664
    outer loop
      vertex 20 27.2514 15.799
      vertex 1.71154e-15 27.9516 14.5244
      vertex 1.60731e-15 26.2494 17.4132
    endloop
  endfacet
  facet normal -0.00219284 0.861552 -0.507664
    outer loop
      vertex 1.60731e-15 26.2494 -17.4132
      vertex 1.71154e-15 27.9516 -14.5244
      vertex 20 27.2514 -15.799
    endloop
  endfacet
  facet normal 0.00214131 0.890269 -0.455431
    outer loop
      vertex 1.71154e-15 27.9516 -14.5244
      vertex 20 28.7582 -12.8536
      vertex 20 27.2514 -15.799
    endloop
  endfacet
  facet normal -1 6.12323e-17 -2.81813e-23
    outer loop
      vertex 1.60731e-15 26.2494 17.4132
      vertex 1.71154e-15 27.9516 14.5244
      vertex -1.91789e-15 -31.3215 -3.34824
    endloop
  endfacet
  facet normal -1 6.12323e-17 1.33247e-23
    outer loop
      vertex 1.71154e-15 27.9516 14.5244
      vertex 1.79638e-15 29.3371 11.4711
      vertex -1.91789e-15 -31.3215 -3.34824
    endloop
  endfacet
  facet normal -1 6.12323e-17 -4.07495e-25
    outer loop
      vertex -1.91789e-15 -31.3215 -3.34824
      vertex 1.79638e-15 29.3371 11.4711
      vertex 1.86086e-15 30.3902 8.28773
    endloop
  endfacet
  facet normal -1 0 0
    outer loop
      vertex 20 28.7582 12.8536
      vertex 20 27.2514 15.799
      vertex 20 140 30
    endloop
  endfacet
  facet normal 0.00214131 0.890269 0.455431
    outer loop
      vertex 20 27.2514 15.799
      vertex 20 28.7582 12.8536
      vertex 1.71154e-15 27.9516 14.5244
    endloop
  endfacet
  facet normal -0.00220705 0.910632 0.413212
    outer loop
      vertex 20 28.7582 12.8536
      vertex 1.79638e-15 29.3371 11.4711
      vertex 1.71154e-15 27.9516 14.5244
    endloop
  endfacet
  facet normal -0.00220705 0.910632 -0.413212
    outer loop
      vertex 1.71154e-15 27.9516 -14.5244
      vertex 1.79638e-15 29.3371 -11.4711
      vertex 20 28.7582 -12.8536
    endloop
  endfacet
  facet normal 0.00215399 0.933127 -0.359542
    outer loop
      vertex 1.79638e-15 29.3371 -11.4711
      vertex 20 29.9478 -9.76634
      vertex 20 28.7582 -12.8536
    endloop
  endfacet
  facet normal -1 0 0
    outer loop
      vertex 20 29.9478 9.76634
      vertex 20 28.7582 12.8536
      vertex 20 140 30
    endloop
  endfacet
  facet normal 0.00215399 0.933127 0.359542
    outer loop
      vertex 20 28.7582 12.8536
      vertex 20 29.9478 9.76634
      vertex 1.79638e-15 29.3371 11.4711
    endloop
  endfacet
  facet normal -0.00221804 0.949395 0.314076
    outer loop
      vertex 20 29.9478 9.76634
      vertex 1.86086e-15 30.3902 8.28773
      vertex 1.79638e-15 29.3371 11.4711
    endloop
  endfacet
  facet normal -0.00221804 0.949395 -0.314076
    outer loop
      vertex 1.79638e-15 29.3371 -11.4711
      vertex 1.86086e-15 30.3902 -8.28773
      vertex 20 29.9478 -9.76634
    endloop
  endfacet
  facet normal 0.00216347 0.96569 -0.259687
    outer loop
      vertex 1.86086e-15 30.3902 -8.28773
      vertex 20 30.8069 -6.57137
      vertex 20 29.9478 -9.76634
    endloop
  endfacet
  facet normal -1 0 0
    outer loop
      vertex 20 29.9478 -9.76634
      vertex 20 30.8069 -6.57137
      vertex 20 140 -30
    endloop
  endfacet
  facet normal -1 0 0
    outer loop
      vertex 20 30.8069 -6.57137
      vertex 20 31.3263 -3.30391
      vertex 20 140 -30
    endloop
  endfacet
  facet normal -1 0 0
    outer loop
      vertex 20 140 -30
      vertex 20 31.3263 -3.30391
      vertex 20 31.5 -1.92882e-15
    endloop
  endfacet
  facet normal -1 0 0
    outer loop
      vertex 20 30.8069 6.57137
      vertex 20 29.9478 9.76634
      vertex 20 140 30
    endloop
  endfacet
  facet normal 0.00216347 0.96569 0.259687
    outer loop
      vertex 20 29.9478 9.76634
      vertex 20 30.8069 6.57137
      vertex 1.86086e-15 30.3902 8.28773
    endloop
  endfacet
  facet normal -0.00222598 0.977401 0.211382
    outer loop
      vertex 20 30.8069 6.57137
      vertex 1.90426e-15 31.099 5.0105
      vertex 1.86086e-15 30.3902 8.28773
    endloop
  endfacet
  facet normal -0.00222598 0.977401 -0.211382
    outer loop
      vertex 1.86086e-15 30.3902 -8.28773
      vertex 1.90426e-15 31.099 -5.0105
      vertex 20 30.8069 -6.57137
    endloop
  endfacet
  facet normal 0.00216974 0.987602 -0.156966
    outer loop
      vertex 1.90426e-15 31.099 -5.0105
      vertex 20 31.3263 -3.30391
      vertex 20 30.8069 -6.57137
    endloop
  endfacet
  facet normal -1 6.12323e-17 9.3805e-24
    outer loop
      vertex 1.86086e-15 30.3902 8.28773
      vertex 1.90426e-15 31.099 5.0105
      vertex -1.91789e-15 -31.3215 -3.34824
    endloop
  endfacet
  facet normal -1 6.12323e-17 -2.07134e-23
    outer loop
      vertex 1.90426e-15 31.099 5.0105
      vertex 1.92608e-15 31.4554 1.6765
      vertex -1.91789e-15 -31.3215 -3.34824
    endloop
  endfacet
  facet normal -1 6.12323e-17 0
    outer loop
      vertex -1.91789e-15 -31.3215 -3.34824
      vertex 1.92608e-15 31.4554 1.6765
      vertex 1.92608e-15 31.4554 -1.6765
    endloop
  endfacet
  facet normal -1 0 0
    outer loop
      vertex 20 31.3263 3.30391
      vertex 20 30.8069 6.57137
      vertex 20 140 30
    endloop
  endfacet
  facet normal 0.00216974 0.987602 0.156966
    outer loop
      vertex 20 30.8069 6.57137
      vertex 20 31.3263 3.30391
      vertex 1.90426e-15 31.099 5.0105
    endloop
  endfacet
  facet normal -0.0022307 0.994332 0.106293
    outer loop
      vertex 20 31.3263 3.30391
      vertex 1.92608e-15 31.4554 1.6765
      vertex 1.90426e-15 31.099 5.0105
    endloop
  endfacet
  facet normal -0.0022307 0.994332 -0.106293
    outer loop
      vertex 1.90426e-15 31.099 -5.0105
      vertex 1.92608e-15 31.4554 -1.6765
      vertex 20 31.3263 -3.30391
    endloop
  endfacet
  facet normal 0.00217284 0.998618 -0.0525158
    outer loop
      vertex 1.92608e-15 31.4554 -1.6765
      vertex 20 31.5 -1.92882e-15
      vertex 20 31.3263 -3.30391
    endloop
  endfacet
  facet normal -1 0 0
    outer loop
      vertex 20 31.5 -1.92882e-15
      vertex 20 31.3263 3.30391
      vertex 20 140 30
    endloop
  endfacet
  facet normal 0.00217284 0.998618 0.0525158
    outer loop
      vertex 20 31.3263 3.30391
      vertex 20 31.5 -1.92882e-15
      vertex 1.92608e-15 31.4554 1.6765
    endloop
  endfacet
  facet normal -0.00223237 0.999998 0
    outer loop
      vertex 20 31.5 -1.92882e-15
      vertex 1.92608e-15 31.4554 -1.6765
      vertex 1.92608e-15 31.4554 1.6765
    endloop
  endfacet
  facet normal 0 -1 0
    outer loop
      vertex 40 130 -15
      vertex 50 130 -15
      vertex 50 130 15
    endloop
  endfacet
  facet normal 0 -1 0
    outer loop
      vertex 40 130 15
      vertex 40 130 -15
      vertex 50 130 15
    endloop
  endfacet
  facet normal 1 0 0
    outer loop
      vertex 50 130 15
      vertex 50 130 -15
      vertex 50 140 -30
    endloop
  endfacet
  facet normal -1 0 0
    outer loop
      vertex 20 140 30
      vertex 20 140 -30
      vertex 20 31.5 -1.92882e-15
    endloop
  endfacet
  facet normal 0 1 0
    outer loop
      vertex 20 140 -30
      vertex 20 140 30
      vertex 50 140 -30
    endloop
  endfacet
  facet normal 0 1 0
    outer loop
      vertex 20 140 30
      vertex 50 140 30
      vertex 50 140 -30
    endloop
  endfacet
  facet normal 1 0 0
    outer loop
      vertex 50 140 -30
      vertex 50 140 30
      vertex 50 130 15
    endloop
  endfacet
endsolid Mesh
